<svg width="88" height="88" viewBox="0 0 88 88" fill="none" xmlns="http://www.w3.org/2000/svg">
<g filter="url(#filter0_d_61385:227)">
<path d="M52.3824 29.5651L49.4993 29.1453C49.4109 29.1453 49.3225 29.1453 49.3225 29.2334L48.1019 30.7994C48.0322 30.9016 48.0009 31.025 48.0135 31.1479C48.0135 31.2361 47.9251 31.4124 47.841 31.3242L46.8771 31.0639C46.7045 31.0639 46.5278 31.0639 46.4562 31.2361L42.5251 36.2741C42.4367 36.3623 42.3483 36.3623 42.1757 36.3623L40.69 35.6653C40.6269 35.6258 40.554 35.6049 40.4795 35.6049C40.4051 35.6049 40.3321 35.6258 40.2691 35.6653L39.4441 36.1943C39.3815 36.2348 39.3084 36.2564 39.2337 36.2564C39.159 36.2564 39.0859 36.2348 39.0233 36.1943L38.6739 36.0222C38.617 35.9966 38.5554 35.983 38.493 35.9824C38.4306 35.9817 38.3688 35.994 38.3114 36.0185C38.254 36.043 38.2023 36.0791 38.1597 36.1245C38.117 36.17 38.0843 36.2238 38.0636 36.2825L37.7985 37.5C37.767 37.6293 37.7755 37.7651 37.8228 37.8895C37.8701 38.0139 37.9541 38.1211 38.0636 38.197L38.7623 38.6168L40.5932 39.7504L41.4686 40.271C41.5915 40.3429 41.7344 40.3736 41.8761 40.3585C42.0178 40.3434 42.1508 40.2833 42.2557 40.187L43.7373 38.8771C43.8648 38.8046 44.0124 38.7752 44.1581 38.7931L44.579 39.0534C44.7516 39.1416 44.9284 39.1416 44.9999 38.9653L45.7828 38.2683C45.8366 38.2143 45.9052 38.1771 45.98 38.1614C46.0548 38.1458 46.1326 38.1523 46.2037 38.1802L47.3401 38.705C47.4277 38.7336 47.521 38.7406 47.612 38.7252C47.7029 38.7098 47.7887 38.6726 47.862 38.6168L48.3881 37.9199L52.3192 32.8818C52.4918 32.6173 52.4034 32.2689 52.0541 32.2689L51.2291 32.0841C51.0524 32.0841 50.9682 31.8238 51.0524 31.6643L52.4497 30.0101C52.6433 29.8338 52.5549 29.5651 52.3824 29.5651Z" fill="white"/>
<path d="M39.2802 39.7672C39.1918 39.6791 39.1077 39.7672 39.1077 39.8554L39.5286 40.9848V41.2493L39.1792 42.7271C39.1732 42.775 39.1781 42.8236 39.1934 42.8693C39.2086 42.9151 39.234 42.9569 39.2676 42.9916L40.3156 43.7725C40.364 43.8147 40.426 43.838 40.4903 43.838C40.5545 43.838 40.6166 43.8147 40.665 43.7725L41.8014 42.8153C41.8354 42.7818 41.8765 42.7565 41.9217 42.7413C41.9669 42.726 42.015 42.7212 42.0623 42.7271L43.2871 42.555C43.3713 42.555 43.3713 42.4668 43.2871 42.3786L39.2802 39.7672Z" fill="white"/>
<path d="M38.9306 43.5121C38.9158 43.4913 38.8962 43.4743 38.8735 43.4626C38.8508 43.4509 38.8257 43.4448 38.8001 43.4448C38.7746 43.4448 38.7494 43.4509 38.7267 43.4626C38.704 43.4743 38.6844 43.4913 38.6696 43.5121L37.7942 43.9319C37.7827 43.9319 37.7714 43.9342 37.761 43.9387C37.7505 43.9432 37.741 43.9497 37.7331 43.958C37.7252 43.9662 37.7191 43.976 37.7151 43.9867C37.7112 43.9974 37.7094 44.0087 37.71 44.0201L35.7865 48.7223H35.8749L36.2958 48.5501V48.6341L34.8984 50.9012C34.8984 50.9894 34.8984 50.9894 34.9826 50.9894L39.8734 46.0227C39.9618 46.0227 39.9618 45.9346 39.9618 45.8464L40.0502 44.5407C40.0502 44.4525 40.0502 44.3686 39.9618 44.3686L38.9306 43.5121Z" fill="white"/>
<path d="M33.9976 80.0001L32.0615 76.3853L35.4287 74.0552L36.0768 74.9578L35.012 75.6757C34.8301 75.8062 34.6403 75.9254 34.4438 76.0326C34.2661 76.1334 34.0803 76.2191 33.8882 76.2887L37.5079 77.162L37.2595 78.1864L33.6315 77.3089C33.7267 77.4065 33.8153 77.5102 33.8966 77.6196C33.9766 77.7246 34.0523 77.8379 34.1281 77.9597L34.3596 78.3795L34.9741 79.5047L33.9976 80.0001Z" fill="#FFCD1E"/>
<path d="M18.1385 66.1876C18.7152 65.5284 19.6327 65.4613 20.4534 66.1876L22.137 67.6612L18.7699 71.4943L17.4314 70.2894C16.556 69.5253 16.2361 68.7234 16.8506 68.0181C16.983 67.8524 17.1613 67.729 17.3633 67.6634C17.5652 67.5977 17.7821 67.5926 17.987 67.6486C17.8359 67.4262 17.7683 67.1578 17.796 66.8906C17.8237 66.6233 17.945 66.3744 18.1385 66.1876ZM19.3423 69.3867L18.6604 68.7948C18.2395 68.4211 17.8776 68.3162 17.6587 68.5681C17.4398 68.82 17.5914 69.1516 18.0249 69.5253L18.7025 70.1173L19.3423 69.3867ZM18.7951 66.9013C18.4963 67.2456 18.6562 67.6654 19.1276 68.0768L19.9021 68.7486L20.7817 67.7452L20.0073 67.0734C19.5359 66.662 19.0982 66.5528 18.7951 66.9013Z" fill="white"/>
<path d="M10.554 62.6861L12.8773 60.9228C13.9464 60.1083 15.1712 60.1251 15.9582 61.1537C16.7453 62.1823 16.4338 63.3663 15.3648 64.1766L13.0414 65.9399L12.4564 65.1758L14.8723 63.3369C15.0027 63.2577 15.115 63.1521 15.2019 63.0269C15.2888 62.9016 15.3484 62.7596 15.3767 62.61C15.4051 62.4603 15.4016 62.3064 15.3666 62.1582C15.3315 62.0099 15.2656 61.8707 15.1731 61.7495C15.0806 61.6283 14.9637 61.5278 14.8298 61.4546C14.6959 61.3814 14.5481 61.337 14.396 61.3244C14.2438 61.3117 14.0907 61.3311 13.9466 61.3813C13.8024 61.4315 13.6704 61.5113 13.5591 61.6156L11.139 63.4502L10.554 62.6861Z" fill="white"/>
<path d="M12.9489 56.7536L8.43692 59.1257L7.98657 58.286L12.507 55.9014L12.9489 56.7536Z" fill="white"/>
<path d="M9.17348 50.2587L10.091 49.9438L11.0759 52.7861L6.24829 54.4655L5.93262 53.5545L9.8385 52.211L9.17348 50.2587Z" fill="white"/>
<path d="M6.19362 42.9538C7.59098 42.7606 8.84945 43.5625 9.08094 45.2377L9.31244 46.917L4.26173 47.6098L4.03444 45.9304C3.79874 44.2091 4.80047 43.1427 6.19362 42.9538ZM6.3241 43.9068C6.11939 43.9251 5.92061 43.985 5.73997 44.0828C5.55934 44.1806 5.40066 44.3142 5.27371 44.4755C5.14677 44.6367 5.05424 44.8221 5.00181 45.0203C4.94937 45.2186 4.93815 45.4254 4.96882 45.6281L5.08667 46.5098L8.21811 46.0899L8.09605 45.2125C8.07113 45.0091 8.005 44.8129 7.9017 44.6358C7.79839 44.4587 7.66006 44.3044 7.49511 44.1822C7.33017 44.0601 7.14204 43.9727 6.94218 43.9254C6.74232 43.878 6.53489 43.8717 6.33251 43.9068H6.3241Z" fill="white"/>
<path d="M4.73738 30.4045L5.6928 30.5935L5.43185 31.895L9.48505 32.7011L9.29564 33.6457L5.24245 32.8396L4.98149 34.1369L4.03027 33.948L4.73738 30.4045Z" fill="white"/>
<path d="M7.52359 22.6841L12.2292 24.6531L11.8546 25.5432L9.94793 24.7455L9.10615 26.7439L11.0128 27.5416L10.6382 28.4275L5.93262 26.4584L6.3072 25.5684L8.20965 26.3661L9.05143 24.3676L7.14899 23.5699L7.52359 22.6841Z" fill="white"/>
<path d="M11.0003 18.6493L11.9052 19.2622L12.9195 17.7676L13.7234 18.3092L12.7091 19.8038L13.614 20.4168L14.8346 18.6241L15.6385 19.1657L13.8749 21.7561L9.66602 18.9012L11.4253 16.3108L12.2292 16.8566L11.0003 18.6493Z" fill="white"/>
<path d="M21.1733 13.3047L18.0503 9.27847L20.5336 7.36401L21.127 8.12812L19.4098 9.4548L20.0832 10.3197L21.5142 9.2113L22.1119 9.9796L20.6724 11.0922L21.9351 12.7211L21.1733 13.3047Z" fill="white"/>
<path d="M27.5708 3.36694L28.8797 5.96574C29.4816 7.16227 29.2417 8.35881 28.0843 8.94238C26.9268 9.52596 25.8156 9.00116 25.2138 7.80043L23.9048 5.21423L24.7676 4.79439L26.1313 7.49815C26.1965 7.62578 26.2863 7.73935 26.3955 7.83237C26.5048 7.9254 26.6313 7.99605 26.7679 8.0403C26.9045 8.08455 27.0485 8.10152 27.1916 8.09026C27.3348 8.079 27.4744 8.03972 27.6023 7.97466C27.7303 7.9096 27.8441 7.82004 27.9374 7.71109C28.0307 7.60214 28.1015 7.47594 28.1458 7.33968C28.1902 7.20343 28.2072 7.05979 28.1959 6.91698C28.1847 6.77416 28.1453 6.63496 28.08 6.50733L26.7164 3.79938L27.5708 3.36694Z" fill="white"/>
<path d="M34.8142 0.990967L35.071 1.92301L33.8083 2.27567L34.9068 6.25153L33.9724 6.50343L32.8781 2.53177L31.6154 2.88443L31.3545 1.9482L34.8142 0.990967Z" fill="white"/>
<path d="M42.8618 0L43.0723 2.90108C43.1691 4.23616 42.483 5.24797 41.1909 5.34033C39.8987 5.4327 39.0864 4.53005 38.9812 3.19076L38.7708 0.293885L39.7346 0.222513L39.9493 3.24534C39.942 3.39945 39.9675 3.55335 40.0242 3.69689C40.0809 3.84044 40.1674 3.97037 40.2781 4.07811C40.3888 4.18586 40.5211 4.26897 40.6664 4.32198C40.8116 4.37498 40.9665 4.39667 41.1208 4.38562C41.275 4.37456 41.4252 4.33101 41.5614 4.25784C41.6975 4.18467 41.8166 4.08353 41.9107 3.96111C42.0048 3.83869 42.0719 3.69775 42.1074 3.5476C42.1429 3.39745 42.1462 3.24149 42.1169 3.09L41.898 0.0671739L42.8618 0Z" fill="white"/>
<path d="M49.1247 5.52958L48.2114 3.69909L47.6347 3.62772L47.4201 5.30707L46.4604 5.18112L47.1128 0.143066L48.91 0.373978C50.219 0.541913 50.7325 1.32701 50.5936 2.30523C50.5531 2.66166 50.3993 2.9958 50.1547 3.25871C49.9101 3.52162 49.5875 3.69949 49.2341 3.76627L50.2779 5.68492L49.1247 5.52958ZM47.761 2.66629L48.7206 2.78804C48.8222 2.81006 48.9271 2.81158 49.0292 2.79253C49.1313 2.77348 49.2286 2.73424 49.3152 2.67712C49.4019 2.62 49.4763 2.54615 49.5339 2.45993C49.5915 2.37371 49.6313 2.27686 49.6508 2.17508C49.664 2.06983 49.6545 1.96299 49.623 1.86167C49.5916 1.76035 49.5389 1.66687 49.4684 1.58745C49.3979 1.50802 49.3113 1.44446 49.2143 1.40101C49.1173 1.35755 49.0122 1.33519 48.9058 1.3354L47.9462 1.21365L47.761 2.66629Z" fill="white"/>
<path d="M55.4928 2.79619L55.1519 3.83319L56.8692 4.39997L56.5661 5.31941L54.8489 4.75263L54.508 5.78963L56.5703 6.46977L56.2799 7.38921L53.3042 6.40679L54.8994 1.57446L57.8793 2.55268L57.5763 3.47633L55.4928 2.79619Z" fill="white"/>
<path d="M69.0328 7.64136L69.3106 11.7306L65.2658 12.4695L65.0469 11.3737L66.3096 11.1554C66.5411 11.1134 66.7642 11.0798 66.9746 11.063C67.1777 11.0462 67.3818 11.0462 67.5849 11.063L64.6387 8.77912L65.2868 7.93944L68.2331 10.2234C68.1856 10.0962 68.1476 9.96569 68.1195 9.83291C68.0873 9.69469 68.0648 9.55441 68.0521 9.41307C68.0521 9.27453 68.0184 9.11499 68.0058 8.94705L67.909 7.68754L69.0328 7.64136Z" fill="#FFCD1E"/>
<path d="M75.8936 26.1558L76.9543 24.4092L76.7101 23.8845L75.1697 24.5982L74.7488 23.7249L79.3786 21.5837L80.1446 23.2211C80.7002 24.4134 80.3088 25.2657 79.4165 25.6814C79.0923 25.8375 78.7265 25.8858 78.3727 25.8193C78.019 25.7529 77.6959 25.575 77.4509 25.3119L76.3818 27.218L75.8936 26.1558ZM77.5772 23.4772L77.9981 24.3505C78.0336 24.4482 78.0883 24.5378 78.1591 24.6139C78.23 24.6901 78.3154 24.7514 78.4104 24.7941C78.5053 24.8367 78.6079 24.86 78.7121 24.8624C78.8162 24.8648 78.9198 24.8463 79.0166 24.8081C79.1115 24.7624 79.1957 24.6971 79.2634 24.6165C79.3312 24.536 79.381 24.442 79.4097 24.3408C79.4383 24.2396 79.4451 24.1335 79.4296 24.0295C79.4141 23.9255 79.3766 23.826 79.3197 23.7375L78.8988 22.8642L77.5772 23.4772Z" fill="white"/>
<path d="M80.9651 34.2757C80.453 34.3877 79.9191 34.346 79.4307 34.1559C78.9423 33.9657 78.5213 33.6357 78.2206 33.2073C77.92 32.7789 77.7531 32.2713 77.7412 31.7485C77.7292 31.2256 77.8726 30.711 78.1534 30.2694C78.4341 29.8277 78.8396 29.4788 79.3188 29.2667C79.798 29.0545 80.3294 28.9885 80.8461 29.0771C81.3628 29.1656 81.8416 29.4048 82.2223 29.7643C82.603 30.1239 82.8685 30.5877 82.9853 31.0975C83.1397 31.7862 83.0136 32.5079 82.6348 33.1038C82.256 33.6998 81.6554 34.1213 80.9651 34.2757ZM80.7504 33.3353C81.0735 33.2582 81.3666 33.0875 81.5926 32.8446C81.8187 32.6017 81.9676 32.2976 82.0208 31.9704C82.0739 31.6433 82.0287 31.3078 81.8911 31.0061C81.7534 30.7045 81.5294 30.4503 81.2471 30.2754C80.9649 30.1006 80.6371 30.0129 80.305 30.0235C79.973 30.0341 79.6514 30.1424 79.381 30.3349C79.1105 30.5274 78.9032 30.7954 78.7852 31.1052C78.6671 31.415 78.6435 31.7527 78.7175 32.0758C78.7661 32.2929 78.8575 32.4983 78.9863 32.68C79.1152 32.8616 79.2789 33.0159 79.4681 33.1339C79.6572 33.2518 79.868 33.3311 80.0881 33.3672C80.3083 33.4032 80.5334 33.3952 80.7504 33.3437V33.3353Z" fill="white"/>
<path d="M80.1696 41.6185L79.2941 42.0006C78.8942 41.5503 78.6675 40.973 78.6544 40.3716C78.6489 40.0215 78.7125 39.6738 78.8417 39.3482C78.9709 39.0226 79.1632 38.7257 79.4074 38.4742C79.6517 38.2227 79.9432 38.0217 80.2654 37.8827C80.5875 37.7436 80.934 37.6692 81.285 37.6637C81.6359 37.6581 81.9846 37.7216 82.311 37.8505C82.6373 37.9794 82.9351 38.1712 83.1872 38.4148C83.4392 38.6585 83.6407 38.9493 83.7802 39.2706C83.9196 39.592 83.9942 39.9375 83.9997 40.2876C84.0088 40.8877 83.8028 41.4714 83.4189 41.9334L82.5308 41.5807C82.8565 41.2428 83.0351 40.79 83.0274 40.3212C83.011 40.0491 82.9284 39.785 82.7867 39.5518C82.645 39.3186 82.4485 39.1234 82.2142 38.9829C81.9799 38.8424 81.7148 38.761 81.4419 38.7456C81.169 38.7302 80.8964 38.7814 80.6477 38.8946C80.3991 39.0079 80.1818 39.1798 80.0147 39.3956C79.8475 39.6114 79.7356 39.8645 79.6885 40.1331C79.6414 40.4017 79.6607 40.6777 79.7445 40.9372C79.8283 41.1968 79.9742 41.432 80.1696 41.6227V41.6185Z" fill="white"/>
<path d="M77.6653 49.0833L77.9052 47.8868L80.4642 46.4467L78.2756 46.0269L78.465 45.0823L83.4694 46.0689L83.28 47.0135L81.2092 46.5937L82.9349 48.76L82.695 49.9524L80.7252 47.3578L77.6653 49.0833Z" fill="white"/>
<path d="M80.2116 54.3355L79.1973 53.9157L78.5112 55.595L77.6147 55.2298L78.2966 53.5504L77.2864 53.1306L76.4447 55.1332L75.5439 54.768L76.7267 51.8711L81.4533 53.7939L80.2664 56.6908L79.3699 56.3256L80.2116 54.3355Z" fill="white"/>
<path d="M76.4828 63.2697L75.6831 62.7323L76.4028 61.6197L72.9304 59.3862L73.4523 58.5801L76.9247 60.8136L77.6486 59.701L78.4652 60.2258L76.4828 63.2697Z" fill="white"/>
<path d="M68.6791 66.7963C68.0183 66.1666 67.9762 65.1632 68.9064 64.1975C69.1665 63.9148 69.4826 63.689 69.8347 63.5344C70.1868 63.3797 70.5672 63.2996 70.9519 63.2991L71.2297 64.2353C70.9277 64.2267 70.6272 64.2796 70.3464 64.3908C70.0656 64.5019 69.8105 64.669 69.5966 64.8819C69.1337 65.3647 69.0453 65.8139 69.302 66.0616C69.5588 66.3093 69.9418 66.1708 70.4721 65.7635C71.6296 64.8777 72.3619 64.8986 72.9175 65.4318C73.4731 65.965 73.5951 67.0272 72.7197 67.9509C72.2863 68.4162 71.7018 68.7136 71.0698 68.7905L70.7499 67.9215C71.2304 67.8612 71.6759 67.639 72.0126 67.2917C72.3703 66.9223 72.5766 66.4982 72.2819 66.2127C71.9873 65.9272 71.7348 66.0952 71.1371 66.536C70.2574 67.17 69.4662 67.552 68.6791 66.7963Z" fill="white"/>
<path d="M66.8022 71.6577L66.1709 70.7677L64.6935 71.8089L64.1338 71.0196L65.6111 69.9784L64.9798 69.0883L63.2036 70.3478L62.6438 69.5543L65.207 67.749L68.1533 71.9012L65.59 73.7107L65.0303 72.9172L66.8022 71.6577Z" fill="white"/>
<path d="M57.3532 73.3415L59.3103 72.4725L59.2598 71.4355L60.2531 71.0156L60.4088 76.5197L59.6091 76.8724L55.6233 73.0644L56.6124 72.6446L57.3532 73.3415ZM58.0855 74.0762L59.466 75.4533L59.365 73.5095L58.0855 74.0762Z" fill="white"/>
<path d="M51.2964 79.4333L51.0691 78.4886L52.3612 78.1822L51.4058 74.1727L52.3444 73.9502L53.2998 77.9596L54.592 77.6532L54.8192 78.5936L51.2964 79.4333Z" fill="white"/>
</g>
<defs>
<filter id="filter0_d_61385:227" x="0" y="0" width="88" height="88" filterUnits="userSpaceOnUse" color-interpolation-filters="sRGB">
<feFlood flood-opacity="0" result="BackgroundImageFix"/>
<feColorMatrix in="SourceAlpha" type="matrix" values="0 0 0 0 0 0 0 0 0 0 0 0 0 0 0 0 0 0 127 0" result="hardAlpha"/>
<feOffset dy="4"/>
<feGaussianBlur stdDeviation="2"/>
<feComposite in2="hardAlpha" operator="out"/>
<feColorMatrix type="matrix" values="0 0 0 0 0 0 0 0 0 0 0 0 0 0 0 0 0 0 0.25 0"/>
<feBlend mode="normal" in2="BackgroundImageFix" result="effect1_dropShadow_61385:227"/>
<feBlend mode="normal" in="SourceGraphic" in2="effect1_dropShadow_61385:227" result="shape"/>
</filter>
</defs>
</svg>
