<svg width="48" height="48" viewBox="0 0 48 48" fill="none" xmlns="http://www.w3.org/2000/svg">
<rect width="48" height="48" fill="#323238"/>
<g clip-path="url(#clip0_61385:212)">
<path d="M36.5251 18.8107C36.5697 17.7823 36.2189 16.7776 35.5498 16.0171C34.8808 15.2565 33.948 14.8022 32.9563 14.7539C30.2849 14.6241 27.5607 14.571 24.7783 14.571H23.9107C21.1336 14.571 18.404 14.6213 15.7327 14.7539C14.7407 14.8055 13.8088 15.2623 13.1409 16.0245C12.4729 16.7866 12.1232 17.792 12.1683 18.8208C12.0484 20.6042 11.9946 22.3803 11.9999 24.161C12.0052 25.9417 12.0484 27.7205 12.1639 29.5058C12.1168 30.5361 12.4654 31.5437 13.1333 32.3082C13.8012 33.0726 14.7339 33.5316 15.7274 33.5846C18.5336 33.7199 21.4131 33.7793 24.3401 33.7747C27.2718 33.7845 30.1427 33.7211 32.9527 33.5846C33.9463 33.5325 34.8795 33.0745 35.5482 32.3108C36.2168 31.5471 36.5665 30.5398 36.5207 29.5095C36.6362 27.7242 36.6891 25.9444 36.6847 24.1601C36.6941 22.3769 36.6409 20.5938 36.5251 18.8107ZM21.9782 29.0652V19.2412L28.9704 24.1509L21.9782 29.0652Z" fill="white"/>
</g>
<defs>
<clipPath id="clip0_61385:212">
<rect width="24.6857" height="19.2" fill="white" transform="translate(12 14.571)"/>
</clipPath>
</defs>
</svg>
